<svg width="40" height="40" viewBox="0 0 40 40" fill="none" xmlns="http://www.w3.org/2000/svg">
<path fill-rule="evenodd" clip-rule="evenodd" d="M12.374 0C9.088 0 6.874 3 7.5 6.25L8.75 13.75C3.824 15.876 0 19.75 0 24.376V27.25C0 31.126 2.524 34.374 6.062 36.5C9.712 38.75 14.5 40 19.94 40C25.38 40 30.164 38.75 33.814 36.5C37.474 34.374 40 31.126 40 27.25V24.376C40 19.75 36.174 16 31.25 13.876L32.5 6.25C33 3 30.66 0 27.376 0C24.476 0 22.5 2.376 22.5 5.25V11.974C21.6495 11.8779 20.7938 11.8365 19.938 11.85H17.088L17.5 5.25C17.5 2.376 15.262 0 12.374 0ZM13.124 27.5C14.174 27.5 15 26.062 15 24.374C15 22.688 14.174 21.25 13.124 21.25C12.074 21.25 11.25 22.688 11.25 24.374C11.25 26.06 12.074 27.5 13.124 27.5ZM26.874 27.5C27.924 27.5 28.75 26.062 28.75 24.374C28.75 22.688 27.924 21.25 26.874 21.25C25.824 21.25 25 22.688 25 24.374C25 26.06 25.824 27.5 26.874 27.5Z" fill="#1C2B54"/>
</svg>
